<?xml version="1.0" encoding="UTF-8" standalone="no"?>
<svg width="48px" height="24px" viewBox="0 0 48 24" version="1.1" xmlns="http://www.w3.org/2000/svg" xmlns:xlink="http://www.w3.org/1999/xlink" xmlns:sketch="http://www.bohemiancoding.com/sketch/ns">
    <!-- Generator: Sketch Beta 3.2.1 (9971) - http://www.bohemiancoding.com/sketch -->
    <title>help</title>
    <desc>Created with Sketch Beta.</desc>
    <defs></defs>
    <g id="Page-1" stroke="none" stroke-width="1" fill="none" fill-rule="evenodd" sketch:type="MSPage">
        <g id="close" sketch:type="MSLayerGroup" transform="translate(24.000000, 0.000000)">
            <circle id="Oval-1" fill="#CFD1DA" sketch:type="MSShapeGroup" cx="12" cy="12" r="12"></circle>
            <path d="M11.5625,11.5625 L5.93831718,11.5625 C5.41684143,11.5625 5,11.982233 5,12.5 C5,13.0213767 5.42009891,13.4375 5.93831718,13.4375 L11.5625,13.4375 L11.5625,19.0616828 C11.5625,19.5831586 11.982233,20 12.5,20 C13.0213767,20 13.4375,19.5799011 13.4375,19.0616828 L13.4375,13.4375 L19.0616828,13.4375 C19.5831586,13.4375 20,13.017767 20,12.5 C20,11.9786233 19.5799011,11.5625 19.0616828,11.5625 L13.4375,11.5625 L13.4375,5.93831718 C13.4375,5.41684143 13.017767,5 12.5,5 C11.9786233,5 11.5625,5.42009891 11.5625,5.93831718 L11.5625,11.5625 Z" id="Rectangle-1" fill="#FFFFFF" sketch:type="MSShapeGroup" transform="translate(12.500000, 12.500000) rotate(-45.000000) translate(-12.500000, -12.500000) "></path>
        </g>
        <g id="help" sketch:type="MSLayerGroup">
            <circle id="Oval-1" fill="#CFD1DA" sketch:type="MSShapeGroup" cx="12" cy="12" r="12"></circle>
            <path d="M11.1600277,13.7385602 C11.2104554,12.146069 12.9851298,11.4543249 13.7725557,10.5054887 C13.9400185,10.3128678 13.9901764,10.0874829 13.9901764,9.84598016 C13.9901764,9.5244169 13.8731412,9.33179602 13.6220818,9.09029329 C13.3707528,8.86517259 13.0193775,8.72064087 12.5835966,8.72064087 C11.8803066,8.72064087 11.3107712,9.26732483 11.1770167,9.75006606 C11.1265891,9.99104033 10.9089683,10.1361005 10.6576393,10.1361005 L9.53582711,10.1361005 C9.23460975,10.1361005 9,9.94268694 9,9.65335928 C9,9.65335928 9.05042761,9.44409214 9.05042761,9.4285028 C9.41879189,8.30263506 10.5910317,7 12.5002697,7 C13.5552046,7 14.3925187,7.27320987 15.0116727,7.83627585 C15.6480854,8.41519541 16,9.1550287 16,9.91124402 C16,10.3456319 15.8487172,10.7472557 15.6143771,11.1174365 C15.397026,11.5032067 14.8779182,12.0018015 14.1409199,12.6449281 C13.8059943,12.9184022 13.43763,13.272201 13.3370445,13.7065888 C13.3370445,13.9961807 13.1027044,14.2532728 12.801487,14.2532728 L11.7128438,14.2532728 C11.4113568,14.2527443 11.1600277,14.0273594 11.1600277,13.7385602 L11.1600277,13.7385602 Z M10.9925649,16.8260431 C10.9925649,16.1985059 11.5618306,15.6520862 12.2149626,15.6520862 C12.8680946,15.6520862 13.4373604,16.1985059 13.4373604,16.8260431 C13.43763,17.453316 12.8680946,18 12.2149626,18 C11.5618306,18 10.9925649,17.453316 10.9925649,16.8260431 L10.9925649,16.8260431 Z" id="Shape" fill="#FFFFFF" sketch:type="MSShapeGroup"></path>
        </g>
    </g>
</svg>